<?xml version="1.0" encoding="UTF-8" standalone="no"?>
<!DOCTYPE svg PUBLIC "-//W3C//DTD SVG 1.1//EN"
 "http://www.w3.org/Graphics/SVG/1.1/DTD/svg11.dtd">
<!-- Generated by graphviz version 2.47.0 (20210316.0004)
 -->
<!-- Title: dependencies Pages: 1 -->
<svg width="2135pt" height="284pt"
 viewBox="0.00 0.00 2135.00 284.00" xmlns="http://www.w3.org/2000/svg" xmlns:xlink="http://www.w3.org/1999/xlink">
<g id="graph0" class="graph" transform="scale(1 1) rotate(0) translate(4 280)">
<title>dependencies</title>
<polygon fill="white" stroke="transparent" points="-4,4 -4,-280 2131,-280 2131,4 -4,4"/>
<text text-anchor="start" x="1042.51" y="-42.4" font-family="sans-serif" font-weight="bold" font-size="14.00">Legend</text>
<polygon fill="#ffffb3" stroke="transparent" points="829.5,-10 829.5,-30 849.5,-30 849.5,-10 829.5,-10"/>
<text text-anchor="start" x="853.13" y="-15.4" font-family="sans-serif" font-size="14.00"> &#160;Declarations</text>
<polygon fill="#8dd3c7" stroke="transparent" points="942.5,-10 942.5,-30 962.5,-30 962.5,-10 942.5,-10"/>
<text text-anchor="start" x="966.23" y="-15.4" font-family="sans-serif" font-size="14.00"> &#160;Module</text>
<polygon fill="#80b1d3" stroke="transparent" points="1028.5,-10 1028.5,-30 1048.5,-30 1048.5,-10 1028.5,-10"/>
<text text-anchor="start" x="1052.28" y="-15.4" font-family="sans-serif" font-size="14.00"> &#160;Bootstrap</text>
<polygon fill="#fdb462" stroke="transparent" points="1125.5,-10 1125.5,-30 1145.5,-30 1145.5,-10 1125.5,-10"/>
<text text-anchor="start" x="1149.17" y="-15.4" font-family="sans-serif" font-size="14.00"> &#160;Providers</text>
<polygon fill="#fb8072" stroke="transparent" points="1221.5,-10 1221.5,-30 1241.5,-30 1241.5,-10 1221.5,-10"/>
<text text-anchor="start" x="1245.23" y="-15.4" font-family="sans-serif" font-size="14.00"> &#160;Exports</text>
<g id="clust1" class="cluster">
<title>cluster_AppModule</title>
<polygon fill="none" stroke="black" stroke-dasharray="1,5" points="8,-70 8,-268 2119,-268 2119,-70 8,-70"/>
</g>
<g id="clust2" class="cluster">
<title>cluster_AppModule_declarations</title>
<polygon fill="none" stroke="black" points="168,-78 168,-130 2111,-130 2111,-78 168,-78"/>
</g>
<g id="clust16" class="cluster">
<title>cluster_AppModule_imports</title>
<polygon fill="none" stroke="black" points="16,-78 16,-130 160,-130 160,-78 16,-78"/>
</g>
<g id="clust18" class="cluster">
<title>cluster_AppModule_bootstrap</title>
<polygon fill="none" stroke="black" points="1048,-208 1048,-260 1172,-260 1172,-208 1048,-208"/>
</g>
<!-- AlertasComponent -->
<g id="node1" class="node">
<title>AlertasComponent</title>
<polygon fill="#ffffb3" stroke="black" points="2102.75,-122 1981.25,-122 1981.25,-86 2102.75,-86 2102.75,-122"/>
<text text-anchor="middle" x="2042" y="-99.8" font-family="Times,serif" font-size="14.00">AlertasComponent</text>
</g>
<!-- AppModule -->
<g id="node14" class="node">
<title>AppModule</title>
<polygon fill="#8dd3c7" stroke="black" points="1151.66,-187 1148.66,-191 1127.66,-191 1124.66,-187 1068.34,-187 1068.34,-151 1151.66,-151 1151.66,-187"/>
<text text-anchor="middle" x="1110" y="-164.8" font-family="Times,serif" font-size="14.00">AppModule</text>
</g>
<!-- AlertasComponent&#45;&gt;AppModule -->
<g id="edge1" class="edge">
<title>AlertasComponent&#45;&gt;AppModule</title>
<path fill="none" stroke="black" d="M2042,-122.09C2042,-145.13 2042,-182 2042,-182 2042,-182 1161.86,-182 1161.86,-182"/>
<polygon fill="black" stroke="black" points="1161.86,-178.5 1151.86,-182 1161.86,-185.5 1161.86,-178.5"/>
</g>
<!-- AppComponent -->
<g id="node2" class="node">
<title>AppComponent</title>
<polygon fill="#ffffb3" stroke="black" points="1962.94,-122 1857.06,-122 1857.06,-86 1962.94,-86 1962.94,-122"/>
<text text-anchor="middle" x="1910" y="-99.8" font-family="Times,serif" font-size="14.00">AppComponent</text>
</g>
<!-- AppComponent&#45;&gt;AppModule -->
<g id="edge2" class="edge">
<title>AppComponent&#45;&gt;AppModule</title>
<path fill="none" stroke="black" d="M1910,-122.04C1910,-143.66 1910,-177 1910,-177 1910,-177 1161.89,-177 1161.89,-177"/>
<polygon fill="black" stroke="black" points="1161.89,-173.5 1151.89,-177 1161.89,-180.5 1161.89,-173.5"/>
</g>
<!-- CadastrarComponent -->
<g id="node3" class="node">
<title>CadastrarComponent</title>
<polygon fill="#ffffb3" stroke="black" points="1839.47,-122 1704.53,-122 1704.53,-86 1839.47,-86 1839.47,-122"/>
<text text-anchor="middle" x="1772" y="-99.8" font-family="Times,serif" font-size="14.00">CadastrarComponent</text>
</g>
<!-- CadastrarComponent&#45;&gt;AppModule -->
<g id="edge3" class="edge">
<title>CadastrarComponent&#45;&gt;AppModule</title>
<path fill="none" stroke="black" d="M1772,-122.22C1772,-142.37 1772,-172 1772,-172 1772,-172 1161.66,-172 1161.66,-172"/>
<polygon fill="black" stroke="black" points="1161.66,-168.5 1151.66,-172 1161.66,-175.5 1161.66,-168.5"/>
</g>
<!-- EntrarComponent -->
<g id="node4" class="node">
<title>EntrarComponent</title>
<polygon fill="#ffffb3" stroke="black" points="1686.31,-122 1569.69,-122 1569.69,-86 1686.31,-86 1686.31,-122"/>
<text text-anchor="middle" x="1628" y="-99.8" font-family="Times,serif" font-size="14.00">EntrarComponent</text>
</g>
<!-- EntrarComponent&#45;&gt;AppModule -->
<g id="edge4" class="edge">
<title>EntrarComponent&#45;&gt;AppModule</title>
<path fill="none" stroke="black" d="M1628,-122.22C1628,-140.83 1628,-167 1628,-167 1628,-167 1161.95,-167 1161.95,-167"/>
<polygon fill="black" stroke="black" points="1161.95,-163.5 1151.95,-167 1161.95,-170.5 1161.95,-163.5"/>
</g>
<!-- InicioComponent -->
<g id="node5" class="node">
<title>InicioComponent</title>
<polygon fill="#ffffb3" stroke="black" points="1551.99,-122 1438.01,-122 1438.01,-86 1551.99,-86 1551.99,-122"/>
<text text-anchor="middle" x="1495" y="-99.8" font-family="Times,serif" font-size="14.00">InicioComponent</text>
</g>
<!-- InicioComponent&#45;&gt;AppModule -->
<g id="edge5" class="edge">
<title>InicioComponent&#45;&gt;AppModule</title>
<path fill="none" stroke="black" d="M1495,-122.03C1495,-139.06 1495,-162 1495,-162 1495,-162 1161.93,-162 1161.93,-162"/>
<polygon fill="black" stroke="black" points="1161.93,-158.5 1151.93,-162 1161.93,-165.5 1161.93,-158.5"/>
</g>
<!-- MenuComponent -->
<g id="node6" class="node">
<title>MenuComponent</title>
<polygon fill="#ffffb3" stroke="black" points="1419.99,-122 1306.01,-122 1306.01,-86 1419.99,-86 1419.99,-122"/>
<text text-anchor="middle" x="1363" y="-99.8" font-family="Times,serif" font-size="14.00">MenuComponent</text>
</g>
<!-- MenuComponent&#45;&gt;AppModule -->
<g id="edge6" class="edge">
<title>MenuComponent&#45;&gt;AppModule</title>
<path fill="none" stroke="black" d="M1363,-122.24C1363,-137.57 1363,-157 1363,-157 1363,-157 1161.78,-157 1161.78,-157"/>
<polygon fill="black" stroke="black" points="1161.78,-153.5 1151.78,-157 1161.78,-160.5 1161.78,-153.5"/>
</g>
<!-- PostagemDeleteComponent -->
<g id="node7" class="node">
<title>PostagemDeleteComponent</title>
<polygon fill="#ffffb3" stroke="black" points="1288.3,-122 1115.7,-122 1115.7,-86 1288.3,-86 1288.3,-122"/>
<text text-anchor="middle" x="1202" y="-99.8" font-family="Times,serif" font-size="14.00">PostagemDeleteComponent</text>
</g>
<!-- PostagemDeleteComponent&#45;&gt;AppModule -->
<g id="edge7" class="edge">
<title>PostagemDeleteComponent&#45;&gt;AppModule</title>
<path fill="none" stroke="black" d="M1133.84,-122.11C1133.84,-122.11 1133.84,-140.99 1133.84,-140.99"/>
<polygon fill="black" stroke="black" points="1130.34,-140.99 1133.84,-150.99 1137.34,-140.99 1130.34,-140.99"/>
</g>
<!-- PostagemEditComponent -->
<g id="node8" class="node">
<title>PostagemEditComponent</title>
<polygon fill="#ffffb3" stroke="black" points="1097.6,-122 938.4,-122 938.4,-86 1097.6,-86 1097.6,-122"/>
<text text-anchor="middle" x="1018" y="-99.8" font-family="Times,serif" font-size="14.00">PostagemEditComponent</text>
</g>
<!-- PostagemEditComponent&#45;&gt;AppModule -->
<g id="edge8" class="edge">
<title>PostagemEditComponent&#45;&gt;AppModule</title>
<path fill="none" stroke="black" d="M1082.86,-122.11C1082.86,-122.11 1082.86,-140.99 1082.86,-140.99"/>
<polygon fill="black" stroke="black" points="1079.36,-140.99 1082.86,-150.99 1086.36,-140.99 1079.36,-140.99"/>
</g>
<!-- RodapeComponent -->
<g id="node9" class="node">
<title>RodapeComponent</title>
<polygon fill="#ffffb3" stroke="black" points="920.1,-122 795.9,-122 795.9,-86 920.1,-86 920.1,-122"/>
<text text-anchor="middle" x="858" y="-99.8" font-family="Times,serif" font-size="14.00">RodapeComponent</text>
</g>
<!-- RodapeComponent&#45;&gt;AppModule -->
<g id="edge9" class="edge">
<title>RodapeComponent&#45;&gt;AppModule</title>
<path fill="none" stroke="black" d="M858,-122.24C858,-137.57 858,-157 858,-157 858,-157 1058.1,-157 1058.1,-157"/>
<polygon fill="black" stroke="black" points="1058.1,-160.5 1068.1,-157 1058.1,-153.5 1058.1,-160.5"/>
</g>
<!-- TemaComponent -->
<g id="node10" class="node">
<title>TemaComponent</title>
<polygon fill="#ffffb3" stroke="black" points="777.7,-122 664.3,-122 664.3,-86 777.7,-86 777.7,-122"/>
<text text-anchor="middle" x="721" y="-99.8" font-family="Times,serif" font-size="14.00">TemaComponent</text>
</g>
<!-- TemaComponent&#45;&gt;AppModule -->
<g id="edge10" class="edge">
<title>TemaComponent&#45;&gt;AppModule</title>
<path fill="none" stroke="black" d="M721,-122.03C721,-139.06 721,-162 721,-162 721,-162 1058,-162 1058,-162"/>
<polygon fill="black" stroke="black" points="1058,-165.5 1068,-162 1058,-158.5 1058,-165.5"/>
</g>
<!-- TemaDeleteComponent -->
<g id="node11" class="node">
<title>TemaDeleteComponent</title>
<polygon fill="#ffffb3" stroke="black" points="646.74,-122 497.26,-122 497.26,-86 646.74,-86 646.74,-122"/>
<text text-anchor="middle" x="572" y="-99.8" font-family="Times,serif" font-size="14.00">TemaDeleteComponent</text>
</g>
<!-- TemaDeleteComponent&#45;&gt;AppModule -->
<g id="edge11" class="edge">
<title>TemaDeleteComponent&#45;&gt;AppModule</title>
<path fill="none" stroke="black" d="M572,-122.22C572,-140.83 572,-167 572,-167 572,-167 1058.23,-167 1058.23,-167"/>
<polygon fill="black" stroke="black" points="1058.23,-170.5 1068.23,-167 1058.23,-163.5 1058.23,-170.5"/>
</g>
<!-- TemaEditComponent -->
<g id="node12" class="node">
<title>TemaEditComponent</title>
<polygon fill="#ffffb3" stroke="black" points="479.04,-122 342.96,-122 342.96,-86 479.04,-86 479.04,-122"/>
<text text-anchor="middle" x="411" y="-99.8" font-family="Times,serif" font-size="14.00">TemaEditComponent</text>
</g>
<!-- TemaEditComponent&#45;&gt;AppModule -->
<g id="edge12" class="edge">
<title>TemaEditComponent&#45;&gt;AppModule</title>
<path fill="none" stroke="black" d="M411,-122.22C411,-142.37 411,-172 411,-172 411,-172 1058.11,-172 1058.11,-172"/>
<polygon fill="black" stroke="black" points="1058.11,-175.5 1068.11,-172 1058.11,-168.5 1058.11,-175.5"/>
</g>
<!-- UsuarioEditComponent -->
<g id="node13" class="node">
<title>UsuarioEditComponent</title>
<polygon fill="#ffffb3" stroke="black" points="324.48,-122 175.52,-122 175.52,-86 324.48,-86 324.48,-122"/>
<text text-anchor="middle" x="250" y="-99.8" font-family="Times,serif" font-size="14.00">UsuarioEditComponent</text>
</g>
<!-- UsuarioEditComponent&#45;&gt;AppModule -->
<g id="edge13" class="edge">
<title>UsuarioEditComponent&#45;&gt;AppModule</title>
<path fill="none" stroke="black" d="M250,-122.04C250,-143.66 250,-177 250,-177 250,-177 1058.23,-177 1058.23,-177"/>
<polygon fill="black" stroke="black" points="1058.23,-180.5 1068.23,-177 1058.23,-173.5 1058.23,-180.5"/>
</g>
<!-- AppComponent  -->
<g id="node16" class="node">
<title>AppComponent </title>
<polygon fill="#80b1d3" stroke="black" points="1164.44,-252 1055.56,-252 1055.56,-216 1164.44,-216 1164.44,-252"/>
<text text-anchor="middle" x="1110" y="-229.8" font-family="Times,serif" font-size="14.00">AppComponent </text>
</g>
<!-- AppModule&#45;&gt;AppComponent  -->
<g id="edge15" class="edge">
<title>AppModule&#45;&gt;AppComponent </title>
<path fill="none" stroke="black" stroke-dasharray="1,5" d="M1110,-187.11C1110,-187.11 1110,-205.99 1110,-205.99"/>
<polygon fill="black" stroke="black" points="1106.5,-205.99 1110,-215.99 1113.5,-205.99 1106.5,-205.99"/>
</g>
<!-- AppRoutingModule -->
<g id="node15" class="node">
<title>AppRoutingModule</title>
<polygon fill="#8dd3c7" stroke="black" points="152.27,-122 149.27,-126 128.27,-126 125.27,-122 23.73,-122 23.73,-86 152.27,-86 152.27,-122"/>
<text text-anchor="middle" x="88" y="-99.8" font-family="Times,serif" font-size="14.00">AppRoutingModule</text>
</g>
<!-- AppRoutingModule&#45;&gt;AppModule -->
<g id="edge14" class="edge">
<title>AppRoutingModule&#45;&gt;AppModule</title>
<path fill="none" stroke="black" d="M88,-122.09C88,-145.13 88,-182 88,-182 88,-182 1058.03,-182 1058.03,-182"/>
<polygon fill="black" stroke="black" points="1058.03,-185.5 1068.03,-182 1058.03,-178.5 1058.03,-185.5"/>
</g>
</g>
</svg>
